<svg id="Layer_1" data-name="Layer 1" xmlns="http://www.w3.org/2000/svg" viewBox="0 0 515.52 186"><defs><style>.cls-1{fill:#236f4c;}</style></defs><title>logo</title><path class="cls-1" d="M696.4,459.6v16H663.56v7.82H693.4v16H663.56v7.91h33.66v16H642.45V459.6Z" transform="translate(-614 -398)"/><path class="cls-1" d="M760.35,459.6v13.19L730.6,507.18H761v16.19h-58.5V510.18l29.75-34.39H703.58V459.6Z" transform="translate(-614 -398)"/><path class="cls-1" d="M769.9,459.78l20.47,61.5,20.38-61.5h2.09l20.47,61.5,20.38-61.5h2.09l-21.56,63.59h-1.91l-20.47-61-20.56,61h-1.91l-21.56-63.59Z" transform="translate(-614 -398)"/><path class="cls-1" d="M892.08,523.37,892,512.73c-4.18,7.37-11.28,10.64-19.74,10.64-9.1,0-15.28-5.73-15.28-13.56,0-7.64,6.73-12.1,17.47-12.1H891.9V492c-.09-8.64-5-13.83-14.92-13.83-6.28,0-11.37,2.55-16.47,6.55l-1.09-1.46c5.28-4.18,10.92-6.91,17.56-6.91,10.83,0,16.65,6.1,16.74,15.65l.18,31.39ZM892,508.63l-.09-9.1H874.43c-10,0-15.65,3.73-15.65,10.28,0,6.91,5.28,11.74,13.55,11.74C881.44,521.55,888.26,517.91,892,508.63Z" transform="translate(-614 -398)"/><path class="cls-1" d="M922.65,478.16c-7.37,0-13.19,2.91-13.19,9.28,0,14.1,28.29,7.37,28.29,23.74,0,8.46-7.64,12.19-15.83,12.19a23.73,23.73,0,0,1-16.83-6.55l1.18-1.36a22,22,0,0,0,15.65,6.1c7.37,0,13.74-3.09,14-9.92.55-14.46-28.29-8.19-28.29-24,0-7.73,6.82-11.28,14.92-11.28a24.5,24.5,0,0,1,12.55,3.37l-.91,1.55A21.35,21.35,0,0,0,922.65,478.16Z" transform="translate(-614 -398)"/><path class="cls-1" d="M991.88,494.9v28.47h-1.82V494.9c0-10.55-6.19-16.74-16.65-16.74-12.55.27-19.92,8.55-19.92,22.2v23h-1.82v-67.5h1.82v34c3-8.46,9.92-13.37,19.92-13.56C985.05,476.34,991.88,483.25,991.88,494.9Z" transform="translate(-614 -398)"/><path class="cls-1" d="M1013.62,462.78a2.37,2.37,0,1,1-2.37-2.37A2.41,2.41,0,0,1,1013.62,462.78Zm-1.46,13.55v47h-1.82v-47Z" transform="translate(-614 -398)"/><path class="cls-1" d="M1072.29,494.9v28.47h-1.82V494.9c0-10.55-6.19-16.74-16.65-16.74-11.74.27-18.92,7.55-19.83,19.65v25.56h-1.82v-47H1034v13.28c3-8.28,10-13.1,19.83-13.28C1065.47,476.34,1072.29,483.25,1072.29,494.9Z" transform="translate(-614 -398)"/><path class="cls-1" d="M1129.52,476.34V518c0,14-8.82,23-22.38,22.92a26.77,26.77,0,0,1-18.92-8.19l1.27-1.27a24.81,24.81,0,0,0,17.65,7.64c12.46.09,20.56-8.19,20.56-21.11v-9.73a21.26,21.26,0,0,1-20.29,13.37c-12.64,0-21.92-9.55-21.92-22.56,0-13.19,9.28-22.74,21.92-22.74a21.21,21.21,0,0,1,20.29,13.46V476.34Zm-1.82,22.74c0-12.1-8.55-21-20.29-21s-20.2,8.92-20.2,21,8.46,20.83,20.2,20.83S1127.7,511.09,1127.7,499.08Z" transform="translate(-614 -398)"/><path class="cls-1" d="M784.3,539a91,91,0,1,1,0-95.93l1.82-.86a93,93,0,1,0,0,97.66Z" transform="translate(-614 -398)"/></svg>